<svg xmlns="http://www.w3.org/2000/svg" viewBox="0 0 512 512" width="512" height="512" role="img" aria-label="The Path of Light">
  <rect width="512" height="512" rx="112" fill="#0a1730"/>
  <path d="M256 96c-46 0-84 38-84 92v112c0 8 6 14 14 14h140c8 0 14-6 14-14V188c0-54-38-92-84-92z" fill="#0d1d3c" stroke="#f2cd6a" stroke-width="8"/>
  <path d="M256 150c-26 0-46 22-46 52v96h92v-96c0-30-20-52-46-52z" fill="#1e3a6b"/>
  <circle cx="256" cy="212" r="30" fill="#f2cd6a"/>
  <circle cx="256" cy="212" r="46" fill="none" stroke="#f2cd6a" stroke-width="4" opacity="0.5"/>
  <rect x="228" y="316" width="56" height="12" rx="6" fill="#f2cd6a"/>
  <path d="M256 96v-24" stroke="#f2cd6a" stroke-width="8" stroke-linecap="round"/>
  <circle cx="256" cy="60" r="10" fill="#f2cd6a"/>
  <path d="M150 400h212" stroke="#3fb7b7" stroke-width="8" stroke-linecap="round" opacity="0.7"/>
  <path d="M186 430h140" stroke="#3fb7b7" stroke-width="6" stroke-linecap="round" opacity="0.4"/>
</svg>
